<?xml version="1.0" encoding="UTF-8"?><svg id="Layer_1" xmlns="http://www.w3.org/2000/svg" viewBox="0 0 758 120.8"><path d="m0,11.82c.59-.19,1.17-.52,1.77-.55,2.15-.11,3.24-.93,3.13-3.33-.09-1.93,1.6-2.63,3.94-1.9,1.44.45,2.86.95,4.32,1.31,1.15.28,2.08.18,3.04-.95.85-1.01,2.45-1.35,3.61-2.15,1.58-1.1,2.68.23,3.98.58,1.5.4,2.83,2.11,4.62.59.14-.12.86.23,1.15.52.92.95,1.76,1.44,2.88.24.09-.1,1.22.42,1.47.88,1.28,2.23,2.47,4.52,3.6,6.83.96,1.97,1.21,3.99-.5,5.72-1.42,1.44-1.38,2.45.44,3.57,2.06,1.27,2.15,2.25.84,4.14-1.59,2.29-1.22,3.52,1.35,4.82.65.33,1.18.9,1.77,1.36-.55.46-1.16.88-1.65,1.41-.42.45-.99,1.01-1.01,1.54-.03.95.06,2.06.53,2.85,1.47,2.46.83,4.87.24,7.37-.67,2.82-.33,2.84,2.44,4.36.95.52,1.22,2.51,1.54,3.89.25,1.07-.06,2.27.17,3.34.37,1.71-.11,2.4-1.75,1.97-3.15-.82-5.73-2.5-7.11-5.52-.28-.61.24-1.8.73-2.49.42-.59,1.32-.84,2.18-1.34-.39-.59-.64-1.16-1.06-1.54-1.18-1.05-2.41-1.81-1.91-3.93.23-.99-1.05-2.35-1.68-3.52-.61-1.13-1.19-2.19-.19-3.47.31-.4.26-1.14.23-1.71-.1-1.67-.2-3.34-.45-4.99-.12-.8-.38-1.87-.95-2.24-1.59-1.02-2.64-2.23-3.12-4.12-.29-1.13-1.17-2.12-2.01-3.15.13,2.3-1.06,3.91-1.99,5.78-.98,1.96-.68,4.57-.85,6.9-.05.59.43,1.26.28,1.79-.47,1.68.13,2.54,1.76,2.95.44.11.79.56,1.19.85-.35.33-.65.77-1.06.97-2.2,1.07-2.85,2.69-1.86,4.95.36.81.87,1.55,1.26,2.35.96,1.99,1.39,3.81-.24,5.89-.94,1.21-1.04,3.11-1.42,4.72-.58,2.46-.89,4.82,1.51,6.73.51.41.7,2.18.28,2.63-1.64,1.79-1.17,3.7-.12,5.14,2.32,3.2,1.44,6.83,1.9,10.27.64,4.74.51,9.62,2.9,14.23-.63.16-1.1.27-1.56.41-.55.17-1.14.3-1.6.6-.12.08.05.98.31,1.15.56.36,1.51.88,1.87.65,4.39-2.76,7.47-.04,10.65,2.38.5.38.91.97,1.46,1.16.54.18,1.49.2,1.78-.13,1.3-1.47,2.44-.4,3.52.16.42.22.54,1.03.8,1.57-.47.18-.92.43-1.4.52-2.81.52-4.55,2.46-6.24,4.54-.42.52-1.5,1.11-1.93.91-2.4-1.1-4.85-.4-7.27-.43-3.46-.04-3.4.05-4.63,3.05-.24.59-1.13.91-1.72,1.35-.37-.51-.94-.97-1.07-1.54-.73-3.26-4.47-4.64-7.27-2.63-.75.54-.64.96.76,2.63-2.09.59-3.84.68-5.67-.89-1.52-1.31-3.38-2.28-5.68-1.91-.57.09-1.72-.78-1.93-1.42-1.04-3.19,1.77-7.85,5.11-8.49,1.02-.2,2.26.03,3.24.44,2.16.9,3.62.58,4.38-1.53.7-1.95,1.11-4,1.67-6,.16-.58.25-1.41.65-1.66,2.3-1.43,1.32-3.26.34-4.62-1.75-2.44-2.75-4.69-.68-7.4.22-.29.25-.94.07-1.28-1.3-2.5-.7-5.22-1.1-7.77-.5-3.23.06-6,.64-9.05.34-1.82-1.3-4.03-2.1-6.05-.15-.38-.53-.68-.96-1.21,2.05-.85,3.29-1.89,1.59-4.11-.53-.69-.74-2.01-.47-2.84.93-2.92-.24-5.65-.44-8.45-.07-1.05.15-2.11.17-3.17.02-1.4.09-2.81-.07-4.19-.22-1.9-.91-3.65,1.11-5.27,1.55-1.25.38-2.89-.44-4.28-.7-1.2-1.47-2.39-1.99-3.66-.68-1.65-5.04-4.31-6.79-4.02-2.84.48-5.3-.24-7.25-2.44,0-.54,0-1.08,0-1.61Z"/><path d="m177.69,62.17c1.49.55,2.99,1.1,4.48,1.66,1.3.49,3.54,4.81,2.91,6.06-1,1.99-.46,3.41,1.15,4.67,2.57,2.02,4.62,4.56,6.38,7.24,1.5,2.29,2.6,4.87,3.62,7.42.84,2.1,1.73,3.52,4.41,3.31,2.19-.17,2.41,2.48,3.82,3.57.52.4.67,1.25,1.08,1.82.84,1.18,1.76,1.35,2.31-.18.55-1.55,1.66-1.68,3-1.56,2.08.18,4.07.16,5.73,2.04.69.79,2.66.68,4.02.59,1.79-.12,2.99.54,4.21,1.76,1.03,1.03,2.58,1.58,3.55,2.65.83.92,1.18,2.29,1.74,3.45-.85.29-1.69.78-2.56.84-2.55.18-2.71.3-2.54,2.9.16,2.46-.17,2.85-2.47,1.97-1.96-.75-3.46-.43-5.03,1.1-1.07-2.72-3.32-3.07-5.75-3.23-1.32-.08-2.72-.2-3.93-.68-1.78-.7-2.98-.07-3.39,1.48-.95,3.58-3.65,4.45-7.05,5.06,1.05-2.7-.5-4.25-2.4-5.2-1.09-.55-2.88-.66-3.94-.13-3.39,1.7-8.57.35-10.37-3.05-.21-.39-.34-.82-.53-1.23-1.46-3.25-1.38-3.09,2.04-3.34,1.64-.12,3.23-1.34,4.77-2.19,1.02-.56,1.85-1.48,2.88-2.02,1.99-1.05,2.19-2.15.58-3.76-.5-.5-1.14-1.08-1.23-1.7-.6-4.09-4.1-5.72-6.76-7.98-1.03-.87-1.54-1.57-1.31-2.89.32-1.87-.38-3.09-2.4-3.36-1.5-.2-1.92-1.21-1.61-2.51.64-2.73-.21-4.81-1.89-7.1-1.68-2.29-2.76-4.86-5.99-5.35-.32-.05-.84-1.17-.67-1.48.28-.54,1.03-.85,1.75-1.37-.05-.13-.28-.58-.42-1.04-.49-1.59-1.21-3.52-3.01-3.14-1.53.32-2.84,1.84-4.15,2.95-.82.69-1.43,1.63-2.18,2.41-.49.5-1.16.84-1.58,1.38-1.37,1.8-2.23,3.93-4.39,5.18-.6.35-.59,2.22-.43,3.34.38,2.78-.02,3.66-2.87,4.67.41.7.83,1.35,1.17,2.03.32.63.99,1.54.77,1.9-1.42,2.4-.01,4.65.05,6.96.03,1.2-.59,2.42-1.03,4-.06-.04.31.3.74.54,1.21.67,1.5,1.44.93,2.85-1.69,4.19.39,6.83,4.81,6.38.87-.09,1.78.18,2.66.12.54-.03,1.24-.2,1.56-.58,1.58-1.81,3.17-2.16,4.87-.56,1.39,1.31,2.54,2.91,3.6,4.5.27.4-.34,1.3-.3,1.96.22,3.32-1.63,3.89-4.37,3.47-.38-.06-1,.16-1.21.45-2,2.96-4.56,1.3-6.98.93-.83-.13-1.69-.09-2.53-.22-.62-.09-1.46-.13-1.79-.53-1.19-1.46-2.06-1.03-2.99.21-.47.62-1.21,1.77-1.51,1.67-2.04-.65-4.27,1.2-6.2-.62-1.78-1.68-3.75-2.42-5.96-.57-.3.25-.88.39-1.26.3-2.41-.55-4.81-1.18-7.21-1.81-.25-.06-.44-.39-.68-.41-4.24-.48-3.77-4-4.25-6.77-.3-1.72.63-2.27,2.29-1.65.67.25,1.27.66,1.92.96,1.43.67,2.53.32,3.47-.99,1.98-2.75,4.09-2.88,7.22-2.15,1.86.43,4.13-.79,6.18-1.38.2-.06.32-.98.21-1.44-.48-1.88-1.08-3.73-1.59-5.61-.46-1.7-.87-3.42-1.27-5.14-.14-.6.04-1.39-.29-1.82-1.55-1.99-.49-3.53.85-4.87.91-.92,1.15-1.57.5-2.77-.35-.65-.43-1.89-.03-2.41,1.92-2.53,1.29-5.07.31-7.63-.51-1.33-1.46-2.53-1.78-3.89-.3-1.27.09-2.68-.04-4-.29-2.87.29-5.42,1.89-7.87.31-.47-.53-1.77-.97-2.62-.58-1.12-1.33-2.15-1.91-3.27-.71-1.36-.25-2.59,1-3.2,1.82-.89,1.36-2.03.67-3.28-.52-.94-1.18-1.8-1.68-2.74-.33-.61-.86-1.47-.66-1.95,1.34-3.27-.49-6.64.45-9.9.21-.74.03-1.59.03-2.34-1.07-.25-2.43-.2-3.07-.84-.57-.57-.34-1.93-.46-2.89-1.73,2.02-1.79,2.1-3.95.5-2.03-1.5-4.05-2.16-6.47-.96-2.41,1.19-2.45-1.48-3.44-2.4-.74-.69-1.11-2.13-1.07-3.21.03-.85.85-1.75,1.47-2.49.47-.56,1.47-.78,1.73-1.38,1.26-2.82,3.45-3.86,6.08-2.38,1.86,1.05,3.44,1.73,5.54.53,1.76-1,3.65-.49,5.33.59,1.95,1.25,3.94,1.55,6.1.46.49-.25,1.21-.26,1.75-.12,1.38.35,2.4.36,2.84-1.37.1-.37,1.19-.7,1.81-.67,1.27.06,2.53.51,3.8.55,3.34.1,7.39,2.3,8.21,4.61,1.02,2.84.12,4.46-2.89,4.95-1.48.24-2.4.58-2.06,2.41.19,1.04-.56,1.69-1.69,1.48-2.24-.41-4.48-.89-6.89-1.38-.34,1.64.01,3.71-1.96,5.01-.35.23.12,2.29.7,3.19,1.07,1.65.98,3.03.19,4.75-.83,1.81-1.04,3.91-1.95,5.66-.52,1-1.87,1.58-3.13,2.57,4.36,2.99,2.75,5.42-.41,7.65,1.96.24,3.4.42,4.62.57-.66,1.7-1.29,2.87-1.55,4.11-.26,1.24.05,1.9,1.76,2.17,1.42.22,2.61,1.89,3.62,3.32.17-.01.46.03.49-.04,1.04-2.18,2.66-3.49,5.08-4.08.68-.17,1.18-1.54,1.51-2.46.18-.51-.33-1.25-.22-1.82.2-.99.42-2.13,1.06-2.81.33-.34,1.59.16,2.41.37.4.1.75.4,1,.54.73-1.01,1.44-1.85,1.96-2.79.19-.34.06-1.04-.18-1.4-.95-1.37-.6-2.7.37-3.66.65-.65,1.85-.75,2.61-1.03.19-.59.43-1.33.68-2.05.28-.83.77-1.66.81-2.5.08-1.99,1.19-1.85,2.54-1.46,1.42.4,2.85.79,4.28,1.18.14-1.35.32-2.7.41-4.06.1-1.58.62-2.73,2.33-3.16,1.62-.41,2.02-1.45,1.47-3.08-.39-1.15-.43-2.43-.53-3.66-.2-2.49-.64-3.06-3.14-2.74-4.56.59-5.25-3.09-4.32-5.81.09-.25.12-.63.3-.73,2.24-1.29,3.81-3.74,6.73-3.84,2.71-.1,3.7.67,4.55,3.66,1.4-.9,2.83-1.71,4.14-2.67,1.47-1.09,2.74-1.37,4.33-.06.71.58,2.05.95,2.89.7,1.9-.57,4-1.22,5.4-2.52,1.4-1.3,2.62-1.16,3.87-.59,2.46,1.14,4.97,1.08,7.59,1.08,2.02,0,4.05.67,6.05,1.13.35.08.85.59.87.93.11,1.84.41,3.75.05,5.51-.37,1.81-1.76,3.03-3.81,3.31-.43.06-.86.74-1.13,1.22-.5.89-.89,1.84-1.37,2.85-2.42-2.07-5.03-2.13-7.67-2.17-.74,0-1.62.05-2.18-.31-2.81-1.79-5.56-1.28-7.69,1.15-1.06,1.22-2.71,1.92-4.05,2.89-.6.43-1.6.98-1.59,1.46.1,4.8-3.63,6.99-6.35,9.97-2.48,2.71-5.43,5.1-6.62,8.88-.33,1.04-1.58,1.83-2.5,2.63-1.21,1.05-2.56,1.94-3.77,2.99-1.23,1.07-1.21,2.22.28,3.01,1.72.91,2.49,1.82,1.75,4.03-.38,1.14.77,2.78,1.17,4.21.28,1.01.48,2.04.71,3.06-.11.15-.22.31-.33.46Z"/><path d="m318.55,72.02c-.44.18-1.27.35-1.28.55-.09,2.25-.06,4.5-.06,7.17,1.32-.99,2.24-1.61,3.06-2.33.27-.24.54-.92.41-1.12-.98-1.43-.02-2.89-.19-4.29-.16-1.26-.45-2.61-1.08-3.7-1.13-1.98-1.51-3.68.14-5.61.52-.61.56-1.84.44-2.73-.16-1.22-.78-2.37-1.01-3.59-.18-.92-.46-2.25,0-2.79,1.89-2.2,1.12-4.85,1.6-7.27.46-2.33-.23-4.52-2.05-5.74-1.97-1.32-1.39-2.66-.46-3.74,1.44-1.68,1.83-3.15,1.04-5.31-.62-1.71-.53-3.7-.65-5.57-.03-.46.33-.94.49-1.43.26-.79.54-1.58.74-2.39.08-.33.05-.73-.04-1.07-.25-1.01,2.39-1.19.79-2.43-1.31-1.01-2.8-2.03-4.36-2.41-1.46-.36-3.13.12-4.7.24-.24.02-.65.24-.7.17-1.84-2.63-4.96-1.52-7.39-2.37-2.31-.81-1.4-2.2-1.34-3.28.08-1.4,1.17-2.03,2.7-1.75,4.04.74,8.07,1.55,12.14,2.05,2.36.29,4.79.08,7.18-.05.45-.02.98-.64,1.29-1.11,1.54-2.31,2.69-2.72,5.12-1.42,2.94,1.58,5.96,2.06,9.22,1.28.4-.1,1.36.42,1.35.62-.08,1.52.11,3.34-.66,4.46-.65.96-2.43,1.38-3.78,1.59-2.25.35-4.56.26-6.82.53-.66.08-1.49.63-1.82,1.21-1.01,1.75-1.7,3.7-2.76,5.41-.67,1.08-.62,1.78-.12,2.92.38.87.33,2.29-.15,3.09-.81,1.37-1.07,2.55-.51,4.03.76,2.01.85,3.95-.79,5.73-1.13,1.23.25,2.02.77,2.99,1.31,2.5,2.52,5.05,3.75,7.59.1.2.07.64-.07.74-2.59,1.97-1.41,5.2-2.52,7.67-.34.75-.05,1.93.27,2.8.71,1.94.58,3.6-.14,5.63-1.14,3.21-1.58,6.69-2.18,10.07-.34,1.91-.57,3.87-.57,5.8,0,1.3.37,2.65.79,3.9.74,2.17.36,3.38-1.88,4.03-2.05.59-2.13,1.62-1.62,3.42.44,1.56.55,3.28.47,4.91-.07,1.55-.75,2.93-2.54,3.34-.34.08-.74.23-.95.48-1.65,2.06-3.42,2.63-5.49.14-.4.76-.66,1.19-.87,1.64-1.12,2.42-1.97,2.63-4.56,2.46-1.2-.08-2.53.88-3.68,1.57-.84.5-1.41,1.81-2.22,1.92-2.21.29-3.93,2.49-6.44,1.58-.35-.13-.92.49-1.42.57-.59.09-1.54.19-1.77-.12-1.61-2.17-3.64-1.27-5.27-.49-1.44.68-2.62.97-4.04.33-.23-.1-.57-.14-.79-.05-2.48,1.04-4-.6-5.64-1.97-1.41-1.17-2.74-1.1-3.98.34-.54.63-1.5,1.77-1.73,1.65-1.39-.72-2.97-1.51-3.84-2.73-1.42-1.98-2.07-4.53-3.57-6.43-1.56-1.97-2.5-4.03-3-6.41-.16-.78-.38-1.64-.86-2.23-1.42-1.74-1.65-3.58-1.2-5.73.18-.84-.2-2-.71-2.74-1.04-1.51-1.04-3.02-.87-4.74.12-1.21-.11-2.61-.64-3.69-.78-1.57-1.24-2.88.08-4.38,1.23-1.4,1.01-2.92.15-4.49-.55-1.01-1.21-2.1-1.28-3.19-.07-1,.3-2.33.98-3,1.26-1.24,1.13-2.39.78-3.89-.32-1.41-.06-2.94-.32-4.37-.36-1.97-.81-3.94-1.51-5.81-.46-1.22-.48-1.85.71-2.63,2.05-1.33,2.21-2.92.78-4.95-2.07-2.94-2.11-3.02.33-5.26,1.43-1.31,1.84-2.52.37-4.07-1.08-1.15-1.34-2.23-.21-3.77.64-.87.77-2.78.23-3.69-1-1.7-.45-2.62.73-3.69.45-.41.97-.89,1.16-1.44.44-1.28.4-2.28-1.3-2.88-2.64-.93-5.04-.15-7.41.65-1.95.66-4.37.25-5.78,2.37-.15.23-1.05.2-1.46,0-1.35-.66-2.63-1.45-4.27-2.37,1.74-.94,3.07-1.75,2.82-3.81-.05-.45,1.46-1.53,2.28-1.55,2.34-.07,3.84-.63,4.33-3.27.36-1.95,1.77-2.36,3.35-.83,2.15,2.08,4.13,1.87,6.81,1.19,1.85-.46,4.11.75,6.19,1.16,2.6.51,5.2,1.1,7.83,1.36.66.07,1.77-.83,2.07-1.53.81-1.91,2.08-2.23,3.59-1.22,2.08,1.39,4.29,2.12,6.77,2.2.51.02,1.27.13,1.48.47.52.83,1.17,1.87,1.04,2.72-.09.58-1.37,1.3-2.17,1.38-1.64.16-3.39.19-4.97-.21-2.97-.75-5.48.92-8.23,1.17-.16.01-.34.12-.47.23-.55.47-1.85,6.23-1.49,6.92,1.09,2.13,1.35,4.09-.09,6.3-.58.88-.33,2.43-.17,3.63.22,1.62.25,2.97-1.39,3.95-1.33.79-1.31,2.01-.55,3.26.28.46.48.99.84,1.37,1.55,1.63,2.44,3.31,1.41,5.65-.31.7.12,1.74.2,2.62.06.7.41,1.83.12,2.03-2.4,1.63-1.02,4.32-1.94,6.33-.14.31-.27.78-.15,1.04.95,1.94.82,3.47-1.16,4.78-.36.23-.19,1.73.14,2.45,1.04,2.29,3.13,4.35,1.09,7.1,1.83,2.84.5,4.84-1.34,7.16-.59.75.63,3.11,1.3,4.62.46,1.03,1.43,1.82,2.1,2.78.5.72,1.33,1.62,1.22,2.3-.59,3.62,2.18,4.99,4.28,6.8,1.01.87,2.08,1.75,3.26,2.33.98.48,2.17.55,3.27.73.32.05.94-.32.99-.24,1.22,2.08,3.85,1.13,5.45,2.63,1.37,1.28,3.21,1.96,5.09.32.34-.3,1.48,0,2.06.35,1.84,1.12,3.31.64,4.9-.57,1.1-.83,2.41-1.47,3.73-1.92,4.27-1.47,7.2-4,7.94-8.72.2-1.25.97-2.47,1.69-3.56.85-1.28,1.12-2.42,1.14-4.08.03-2.89-1.12-5.08-2.33-7.41-.16-.3-.21-.9-.02-1.09,2.46-2.56,1.11-5.48.6-8.16-.42-2.22-.59-4,1.42-5.47.95-.69.77-1.44-.08-2.21-.7-.64-1.42-1.38-1.82-2.22-.55-1.15.23-1.88,1.29-2.18.9-.26,1.62-.21,2.05.99.94,2.68,2.5,5.23.68,8.16-.23.38-.2,1.11,0,1.53.87,1.78,1.85,3.51,2.81,5.3Z"/><path d="m438.49,104.83c-4,.23-4.69,1.09-4.32,4.87-3.4.48-6.8.99-10.21,1.4-.65.08-1.37-.2-2.03-.4-2.54-.76-3.18-.26-3.25,2.36-.02.85-.36,1.7-.56,2.55l-.55-.06c-.59-1.44-1.23-2.85-1.74-4.32-.43-1.25-1.33-1.82-2.43-1.36-.48.2-.55,1.34-.83,2.04-.21.5-.36,1.27-.72,1.4-.46.17-1.26,0-1.66-.33-1.19-.97-2.24-2.11-3.38-3.14-1.16-1.05-2.46-1.13-3.65-.14-1.68,1.4-3.51,1.42-5.28.52-2.36-1.2-4.77-1.22-7.31-1.07-1.79.11-3.6-.23-5.87-.41.03-.05-.21.5-.58.94-.76.9-1.65,1.38-2.72.44-1.99-1.74-3.86-1.86-6.28-.46-2.03,1.18-4.44.86-6.73-.17-.99-.45-2.68-.7-3.32-.17-.64.53-.41,2.16-.48,3.31-.03.51.13,1.02.25,1.84-.93-.4-2.03-.53-2.22-1.02-.86-2.18-2.17-1.47-3.87-1.27-1.17.14-2.81-.94-3.74-1.94-2.17-2.34-1.84-5.51-2.03-8.42-.11-1.75,1.66-1.48,2.62-1.59,1.56-.18,2.64-.65,3.89-1.74.96-.84,3.17-.69,4.67-.34,1.33.31,2.66,1.33,3.61,2.38.97,1.07,1.73,1.37,2.96.65,1.37-.8,3.18-1.21,4.06-2.36,1.2-1.57-.82-2.84-1.34-4.28-.77-2.13-.43-3.13,1.72-3.55,2.24-.44,2.19-1.75,1.72-3.35-.28-.94-.86-1.79-1.11-2.73-.43-1.57-.75-2.98,1.34-3.99,1.25-.6,2.1-2.15,2.97-3.38.27-.38.01-1.13,0-1.71-.46.01-.94-.05-1.38.05-1.87.44-3.22-.98-3.3-2.88-.08-1.72-.58-3.49-1.27-5.08-.64-1.44-1.38-2.66-.43-4.25.28-.47.16-1.21.15-1.82-.03-2.17-.14-4.35-.09-6.52.01-.55.43-1.21.86-1.62,1.62-1.56,1.44-3.06.21-4.76-.5-.69-.95-1.66-.89-2.46.16-2.32.29-4.51-.97-6.69-.71-1.24.45-2.04,1.64-2.56,2.4-1.03,2.44-1.31,1.56-3.8-.89-2.5-2.22-5.06.59-7.33.33-.27.49-1.3.24-1.65-1.04-1.5-.63-2.98-.42-4.59.21-1.63.85-3.62-2.14-3.92-.82-.08-1.42-2.05-2.18-3.12-.45-.64-.72-.94-1.88-1.1-3.95-.54-5.13,1.43-5.62,5.06-2.45-1.89-4.39-4.04-6.81-5.07-1.93-.82-2.03-2.01-2.3-3.48-.06-.32-.01-.93.15-.99,2.19-.86,1.69-2.53,1.47-4.24-.18-1.43,1.95-3.37,3.36-2.97,2.54.71,5.08,1.49,7.49,2.56,2.91,1.29,5.6-.17,8.39-.26,1.64-.05,3.29-.15,4.93-.28.57-.04,1.39-.05,1.65-.41,1.07-1.45,1.89-1.3,3.31-.3.96.68,2.53.63,3.83.67,1.58.04,3.23.08,4.73-.32,3.45-.92,6.14,1.44,9.28,1.85,1.86.24,3.2,2.98,2.93,5.16-.35,2.86-.74,3.14-3.68,3.62-1.07.18-2.21.67-3.07,1.33-1.9,1.46-2.67,1.48-4.29-.31-.12-.13-.25-.36-.37-.35-2.38.06-4.85-.22-7.1.36-1.88.49-2.2,2.51-2.07,4.45.08,1.09,0,2.31-.44,3.28-.6,1.3-.12,2.17.51,3.18.71,1.12.64,2.2-.48,3.09-1.43,1.14-1.28,2.47-.33,3.77,1.38,1.88,1.24,3.85,1.02,6.08-.31,3.12.03,6.31.2,9.47.14,2.69,1.26,5.49-1.49,7.7-.4.32-.22,1.71.07,2.46.34.89,1.04,1.65,1.67,2.41,1.99,2.43,1.97,2.39-.06,4.77-.31.36-.14,1.1-.27,1.65-.23.94-.24,2.12-.83,2.74-2.37,2.55-3.04,5.54-1.57,8.9.6,1.37,1.34,2.54.27,4.14-.36.53.42,1.8.62,2.75.28,1.34.9,2.79.64,4.03-.51,2.37.75,5.09-1.34,7.2-.13.13.66,1.62,1.3,2,2.85,1.67,5.77,3.22,8.72,4.68,1.03.51,2.37.9,2.54-1.06,3.02-.36,5.33-3.38,8.66-2.47,2.13.58,4.18,1.48,6.29,2.15.61.19,1.66.36,1.94.05,1.59-1.8,3.66-.98,5.52-1.16.36-.03.9.36,1.15.71,1.27,1.78,3.52,2.04,5.43.57,1.89-1.46,2.24-4.04.74-5.61-.43-.45-1.06-.77-1.35-1.29-.39-.7-.98-1.88-.7-2.24.57-.74,1.66-1.47,2.56-1.5,3.3-.1,3.72-.36,2.37-3.35-1.2-2.66.4-5.06.09-7.6-.16-1.29.13-2.63.19-3.95.06-1.3,3.63-4.33,5.06-4.26,1.24.06,2.83,2.06,2.64,3.86-.17,1.61-.68,3.27-1.43,4.7-.57,1.08-.68,1.75-.12,2.9,1.11,2.28,3.52,4.3,1.98,7.32,1.71,3.21-1.04,5.77-1.26,8.7-.06.78-.13,1.6.06,2.34.32,1.26.84,2.48,1.35,3.91Z"/><path d="m650.5,102.9c1.81.77,3.14.51,3.99-1.59.65-1.61,2.03-2.41,3.65-1.21,2.33,1.74,4.99,1.5,7.62,1.57.25,0,.71-.01.73-.1.56-2.24,2.97-2.03,4.27-3.25.51-.48.91-1.08,1.31-1.66.78-1.14,1.52-2.31,2.29-3.46.24-.37.73-.74.72-1.1-.1-2.76,1.02-5.11,2.04-7.58.52-1.27.75-2.45,2.06-3.16,1.25-.68,1.65-1.78,1.24-3.2-.59-2.06-.15-3.95.6-5.98.57-1.55.26-3.49.07-5.23-.17-1.57.1-2.7,1.44-3.72,1.36-1.04,2.33-2.42,2.2-4.36-.05-.74.49-1.5.64-2.28.27-1.37.68-2.78.61-4.14-.13-2.66.61-4.08,3.1-5.19.39-.17.77-.46,1.03-.8.57-.73,1.17-2.19,2.05-.77.6.95,1.85,2.82.13,3.75-2.6,1.4-2.74,3.56-2.32,5.84.59,3.19,1.06,6.25-.45,9.38-.34.7.24,2.06.73,2.91.93,1.6,1.15,2.62-1.17,2.84-.48.04-.9.6-1.16.78,2.3,1.12,4.4,2.33,6.65,3.14.88.32,2.42.12,3.09-.47,2.29-2.05,4.33-2.23,6.73-.21,1.12.94,2.55,1.79,4.06.24.26-.27,1.15-.1,1.68.09,1.72.61,3.2.94,4.17-1.23.68-1.52,1.95-2.02,3.74-1.81,1.26.14,3.4-.09,3.77-.83.85-1.71-1.16-2.47-2.24-3.45-.53-.48-1.21-.85-1.6-1.41-.37-.54-.82-1.7-.62-1.86,2.66-2.26.07-3.18-1.05-4.47-1.64-1.88-1.53-5.37-.03-6.8-.99-2.22-1.93-4.31-2.86-6.4-.14-.32-.41-.72-.33-1,1.37-4.79-2-8.33-3.45-12.3-.96-2.62-.13-5.01-.45-7.48-.03-.24.68-.85.82-.78.67.31,1.69.71,1.79,1.22.21,1.18.54,2.04,1.74,2.4.08.02.19.12.19.18-.16,2.93,1.81,4.65,3.58,6.55.34.37.13,1.58-.2,2.2-.9,1.67-.23,2.68,1.09,3.62,1.01.72,2.12,1.38,2.93,2.3.88.99.92,1.88-.87,2.11-1.87.23-2.1.92-1,2.4.53.72,1.29,1.28,1.73,2.04.81,1.37,2.45,2.43,1.8,4.45-.1.32.22.9.51,1.21,1.59,1.7,1.74,3.77,1.73,5.94,0,.51.33,1.07.65,1.51.86,1.19,1.95,2.24,2.65,3.51.85,1.56,1.41,3.28,2.05,4.95.19.49.39,1.1.25,1.56-.7,2.38-.65,4.52,1.05,6.58.22.27-1.02,1.74-1.82,3.05.3.26.99.87,1.69,1.47.88.75,1.86,1.41,2.65,2.24,1.78,1.88,1.8,2.74.37,4.82.51.73,1.01,1.44,1.51,2.15,1.09,1.56,2.16,2.99,4.5,2.56,1.08-.2,2.29.21,3.43.4,1.19.19,2.47.92,3-1.05.07-.26,1.48-.26,2.26-.2,1.17.09,2.38.18,3.47.56,1.01.35,2.09.91,2.8,1.69,2.28,2.5,1.82,5.86,2.51,8.87.06.28-.17.71-.4.94-1.28,1.28-1.1,2.66-.51,4.2.29.75.18,1.65.24,2.48-.81-.2-1.61-.43-2.43-.6-.94-.2-2.18-.81-2.77-.43-2.11,1.35-3.92.69-6.05.08-1.82-.52-4.14-.99-5.47,1.44-.18.33-1.14.65-1.33.49-1.69-1.39-3.09-.51-4.66.27-2.33,1.16-4.4.29-6.14-1.34-1.61-1.5-3.04-1.64-4.62-.01-.98,1.01-2.09,1.17-3.39.38-2.41-1.46-4.7-.82-7.02.45-.8.44-2.35.77-2.81.35-1.24-1.16-2.11-2.74-3.04-4.21-.1-.16.33-.89.66-1.04,2.02-.9,2.21-2.52,2.1-4.46-.14-2.49.51-2.77,2.84-1.85,1.26.49,2.68.67,4.05.77.47.03,1.4-.58,1.43-.94.2-2.79,2.45-3.01,4.34-3.53,2.82-.77,3.34-1.8,1.87-4.37-.9-1.57-1.76-3.13-.9-5.02.07-.15.09-.36.05-.52-1.1-3.85-2.21-7.69-3.51-11.48-1.31,3.24-4.19,4.41-6.83,2.53-1.53-1.09-2.57-1.09-3.52.47-.83,1.38-1.9,1.39-3.22.83-1.38-.59-2.7-.83-3.93.48-.28.3-1.18.34-1.61.14-4.35-2.09-8.29-.59-12.22,1.26-2,.94-.98,2.46-.69,3.51-1.41.63-2.9.89-3.81,1.76-2.93,2.79-2.85,2.88-1.06,6.56,1.29,2.65,1.21,2.75-1.07,4.94-.64.62-1.13,1.57-1.31,2.44-.1.5.45,1.37.95,1.66.34.2,1.08-.38,1.67-.5.75-.16,1.92-.58,2.22-.26,1.17,1.27,2.46.73,3.75.67,1.51-.07,3.02-.06,4.53-.13,3.11-.13,4.62,1.99,5.91,4.29.27.48.21,1.53-.14,1.91-2.79,3-6.16,3.63-10.05,1.98-1.73-.73-3.3-.98-4.35,1.06-.16.3-.45.76-.67.76-3.07.01-6.17,1.86-9.18.05-1.75-1.05-2.96-1.02-3.73,1.19-2.32-1.68-4.66-2.79-7.46-1.98-.09.02-.19.08-.26.05-2.34-.84-4.71-1.87-6.41,1.07-2.14-.76-4.58-1.11-6.35-2.39-1.71-1.24-2.4-3.42-1.25-5.78.39-.8.06-1.95.06-3.1Z"/><path d="m448.18,10.71c.5-.23,1.16-.69,1.88-.84,1.51-.33,3.06-.76,4.57-.67,1.63.1,2.99.11,4.56-.75,1.11-.6,2.89-.29,4.29.02,3.92.87,7.84,1.08,11.8.42,2.3-.38,4.51-.81,6.55,1.04,1.21,1.09,2.91.46,3.59-1.2.75-1.84,1.93-1.95,3.4-1.13,1.94,1.07,3.74,2.61,6.14,1.04.22-.14.8.19,1.17.38,1.84.94,3.09.62,3.66-1.33.48-1.64.9-1.86,2.33-.85.7.49,1.86.36,2.82.44,1.57.13,3.14.26,4.71.26.57,0,1.31-.2,1.67-.59,1.4-1.5,2.8-1.3,4.31-.26,1.7,1.17,3.32,2.09,5.66,1.45,1.84-.51,3.72,1.39,4.52,3.23.74,1.71.56,3.31.56,5.08-.01,3.32.81,6.63,1.26,9.95.15,1.13.18,2.28.34,3.41.22,1.52.56,3.02.75,4.55.27,2.09.48,4.19.62,6.3.02.28-.47.74-.82.89-1.81.79-1.81,2.17-1.51,3.82.34,1.83.58,3.69.7,5.55.09,1.38-.46,2.32-2.05,2.61-1.28.23-2.68,1.47-3.68,1.16-.86-.27-1.11-2.19-1.82-3.24-1.39-2.03-1.51-3.95.01-5.93,1.04-1.36,1.02-2.78.32-4.29-.45-.96-.73-2-1.09-3-.38-1.07-.28-1.86.95-2.36,1.89-.77,1.99-2.03.88-3.64-.99-1.45-2.1-2.91-.55-4.77.29-.35-.02-1.37-.29-1.98-.57-1.3-1.29-2.53-2.07-4.03-1.38.98-2.76,1.96-4.36,3.09.1-.57.18-1.08.29-1.59.23-1.11.79-2.25-.87-2.88-.34-.13-.32-1.1-.58-1.63-.28-.59-.6-1.43-1.08-1.57-.44-.13-1.41.39-1.62.86-.83,1.79-2.1,1.81-3.51,1.02-2.18-1.23-4.43-1.45-6.92-1.47-2.33-.02-4.65-1.01-6.99-1.49-3.34-.69-3.9.06-3.4,3.44.39,2.67.24,5.42.42,8.13.06.96.22,1.98.62,2.84,1.19,2.54,1.07,5.2.94,7.87-.02.35,0,.9-.19,1.02-2.54,1.49-1.04,3.55-.77,5.38.26,1.77.69,3.51,1.09,5.25.14.6.22,1.39.62,1.73,1.6,1.35,2.01,2.55.27,4.16-.38.35-.2,1.53.01,2.24,1.1,3.62,1.12,3.63-2.85,4.32.42.55.74,1.08,1.17,1.51,1.61,1.61,1.23,3.3.48,5.17-.38.96-.49,2.18-.29,3.19.43,2.16,1.14,4.27,1.72,6.4.05.17.11.41.03.52-1.83,2.6-.68,5.01.37,7.48.25.6.15,1.4.06,2.08-.33,2.42-.8,4.83-1.07,7.26-.23,2.04,1.47,3.27,3.48,3.04,1.1-.12,2.56.12,3.38.78,2.65,2.14,5.82,2.07,8.88,2.5.52.07,1.11-.44,1.68-.65,1.02-.38,2.21-1.27,3.04-1.02,2.39.71,5.67-.4,7.08,3.28-1.15-.26-2.09-.47-3.52-.79.81.91,1.29,1.45,1.89,2.13-1.83.93-3.58,1.72-3.47,4.08.01.24-.97.81-1.44.76-3.41-.33-6.23,1.78-9.48,2.23-1.08.15-1.9,2.16-2.84,3.33-.22-.13-.43-.26-.65-.39-.37-1.17-.74-2.33-1.14-3.59-1.08-.06-2.32.16-3.3-.25-2.31-.96-3.12.04-3.28,2.43-1.42-.79-2.64-1.45-3.84-2.13-2.93-1.66-3.7-1.29-4.41,2.13-.16.05-.4.19-.47.13-2.39-2.02-5.13-2.85-8.25-3.09-2.72-.21-3.34-.33-4.29,2.24-.8,2.14-2.46,2.74-4.3,3.13-.68.14-1.87-.08-2.2-.56-2.56-3.74-6.81-4.92-10.42-7.02-1.59-.92-1.44-2.09-.23-2.45,2.02-.61,2.51-2.1,3.16-3.64.74-1.74,1.67-2.15,3.54-1.18,1.68.87,3.7,1.16,5.6,1.49.44.08,1.13-.62,1.55-1.1,1.77-2,2.57-2.12,4.73-.46,2.57,1.97,5.55,1.73,8.49,1.54.41-.03,1.19-.92,1.1-1.17-.76-2.11.54-4.46-1.15-6.56-1.79-2.24-1.35-2.91,1.55-3.66,2.11-.55,2.23-.89,1.29-2.96-1.01-2.24-2.5-4.45-.68-7,.21-.29-.02-.88.02-1.32.25-2.77-.7-5.61,1.02-8.29.95-1.48-.81-2.35-1.6-3.33-1.56-1.95-1.55-2.07.64-2.83v-6.7c-.72-1.15-2.08-2.35-2.06-3.52.04-1.74,1.32-3.2,3.23-3.78.36-.11.94-.47.93-.7-.07-2.21-.26-4.41-.38-6.62-.04-.78-.14-1.61.08-2.33.81-2.58.84-5.17-.18-7.61-1.57-3.75-.26-7.18.91-10.6.84-2.44.34-5.3-1.61-6.72-1.9-1.39-2.59-1.14-3.3,1.54-.78-.55-1.51-.98-2.14-1.53-1.98-1.74-2.94-1.8-4.69.03-1.05,1.1-1.89,1.71-3.22.28-.48-.52-1.57-.52-2.4-.65-1.83-.28-3.66-.54-5.5-.73-1.67-.17-3.35-.24-5.03-.36.06,3.66-.21,3.9-5.51,4.63.79,1.31,1.46,2.5,2.21,3.65.84,1.29,1.23,2.55.31,3.99-.27.42-.51,1.01-.45,1.48.51,4.01,1.2,8,1.61,12.02.15,1.45-.02,3.06-2.23,3.29-1.89.19-2.17.92-1.35,2.7.22.49.52.94.8,1.4.83,1.34,2.17,2.61.47,4.23-2.21,2.11-3.44,2.29-5.66.83-2.59-1.69-2.15-1.65-1.59-5.05.22-1.32.68-2.74.69-4.16,0-.27-.05-.61.09-.79,2.05-2.57.77-5.14.15-7.78-.34-1.43-.17-2.97-.28-4.46-.15-1.94-.21-3.91-.57-5.81-.25-1.31-.42-2.27,1.22-2.65,1.45-.33.9-1.29.79-2.31-.18-1.7.07-3.45.03-5.17-.03-1.56-.2-3.11-.33-4.85Zm41.43,40c0-.28-.02-.57-.02-.85-.63,0-1.26-.02-1.88.04-.05,0-.04.6-.05.92.65-.04,1.3-.08,1.95-.12Z"/><path d="m67.65,61.76c-.62-1.08-1.07-2.16-1.77-3.04-1.61-2.03-2.09-4.16-1.62-6.75.46-2.54.43-5.16.62-7.82,2.71-1,2.8-1.37,2.78-4.45,0-1.92.66-3.84.74-5.78.06-1.44-.32-2.89-.51-4.34l-.62.05c.07-.15.12-.41.23-.44,3.64-.89,3.8-2.58,2.48-6.38-.93-2.68-.17-5.14,1.58-7.13,1.09-1.24,1.5-2.4,1.73-3.99.25-1.75.86-4.03,2.12-4.9,1.22-.85,3.69-.71,5.23-.08,1.99.81,3.21.39,4.52-.92,1.39-1.38,2.78-1.33,4.28-.1,2.55,2.09,6.59,2.12,9.2.15,1.7-1.29,3.13-1.12,4.29.51.99,1.38.65,3.05-1.11,4.06-1.34.77-2.02,1.32-1.23,3.06.66,1.48-.46,2.1-1.92,1.84-.88-.16-1.72-.52-2.6-.65-2.4-.34-3.03.33-3.79,2.66-.48,1.47-2.17,2.7-2.23,4.09-.05,1.21,1.58,2.42,2.15,3.76.21.48-.31,1.6-.83,1.99-1.33,1.01-1.54,2.3-1.5,3.8.07,2.75-.2,5.53,1.3,8.08.33.57.37,1.4.3,2.09-.24,2.21-.74,4.4-.83,6.61-.04.91.63,1.91,1.15,2.77.84,1.41,2.39,2.63-.22,4.02-.61.33-.54,2.05-.66,3.15-.08.76.39,1.9.02,2.24-1.88,1.78-.94,3.64.03,5.09,1.52,2.25,1.5,4.57,1.01,6.94-.41,2.03-.27,3.83.58,5.72.32.72.21,2.29-.26,2.58-2.34,1.46-.63,2.7.07,3.9.38.66,1.23,1.04,1.75,1.65.87,1.01,1.08,2.03-.66,2.22-1.82.2-1.47,1.12-1.25,2.44.41,2.51.46,5.08.73,7.62.1.9.39,1.78.59,2.66.76-.2,1.51-.53,2.28-.57,1.36-.06,2.77-.16,4.07.15,1.45.35,2.78,1.14,4.3,1.8-1.33,2.47-.03,4.49,2.06,6.66-1.41.47-2.51.85-3.77,1.27.07.47.16,1.1.29,1.99-.58-.15-.89-.2-1.18-.31-.68-.27-1.35-.57-2.03-.85-.19.64-.37,1.29-.58,1.93-.24.7-.51,1.39-.77,2.09-.68-.38-1.46-.65-2.03-1.16-2.51-2.22-5.43-3.6-8.71-3.95-1.03-.11-2.45.52-3.2,1.29-1.28,1.33-2.16,1.57-3.85.53-1.95-1.19-4.27-1.76-6.4-2.68-1.42-.61-3.14-5.53-2.28-6.71.24-.32,1.47-.31,1.93,0,1.47,1.02,2.91,1.71,4.73,1.08,1.15-.39,1.97-.96,1.47-2.34-.69-1.91.34-2.41,1.96-2.49,1.58-.07,2.56-1.15,2.13-2.46-1.55-4.75.95-8.82,1.86-13.16.09-.43.15-.89.32-1.29.81-1.92.04-3.06-1.58-4.18-1.69-1.17-3.12-2.73-4.66-4.12.12-.2.24-.39.36-.59.4-.04.81-.07,1.21-.11,2.28-.22,3.1-1.27,2.4-3.37-1.2-3.63-.87-7.3.16-10.77,1.08-3.67.6-6.61-1.94-9.4-1.73-1.89-1.66-2,.69-2.95,1.53-.62,2.1-1.57,1.42-3.15-.28-.65-.5-1.33-.78-1.99-1-2.35-1.02-4.51,1.37-6.46-2.83-1.88-2.94-4.44-1.85-7.31.78-2.05-.31-3.69-1.51-5.15-1.16-1.41-2.53-2.65-3.81-3.96-.29.16-.58.33-.88.49.37,1.04.62,2.14,1.12,3.12.91,1.77,1.08,3.21-.58,4.77-2.07,1.94-1.79,4.71-1.95,7.28-.09,1.51,1.2,3.33-.99,4.39-.12.06-.12.52-.07.77.39,2.19-.87,3.17-2.73,3.55-1.86.39-2.05,1.25-1.3,2.88.41.88.28,2,.37,3.02.08.88-.04,1.81.2,2.64.55,1.94,1.1,3.79-.75,5.42-.3.26-.37,1.03-.25,1.49.56,2.05-.74,2.93-2.19,3.87Z"/><path d="m576.31,11.18c-.17.5-.49,1-.49,1.5,0,1.32-.43,2.03-1.89,1.8-1.66-.26-2.06.49-2.09,2.13-.05,2.71-1.03,5.4.63,8.04.66,1.04,0,2.13-1.26,2.48-1.78.49-2.33,1.49-1.5,3.17.04.08.07.19.05.26-1.59,3.98.95,7.39,1.45,11.08.16,1.18-.17,2.95-.97,3.64-1.36,1.16-.97,2.05-.41,3.19.28.56.55,1.13.87,1.67.74,1.28,1,2.48-.32,3.59-1.21,1.02-.99,2.25-.23,3.38.76,1.14,1.28,2.52,3.27,2.13,1.09-.21,2.34.43,3.81.74-.18.1.07.04.1-.06.39-1.72.83-3.38,3.07-3.43,1.55-.03,4.08,1.92,4.42,3.72.13.7-.31,1.98-.83,2.22-1.33.6-2.84.97-4.3,1.03-2.06.08-4.16-.64-6,1.09-.37.35-1.57-.17-2.5-.31.5,3.16.78,6.26-.96,9.19-.29.48.17,1.5.45,2.21.87,2.21.12,4.16-.29,6.38-.66,3.6-2.9,7.65.83,11.18,1.86,1.76,1.4,3.14-.29,5.25-1.21,1.5-.12,3.37.74,4.55.96,1.32,2.68,2.1,4.15,2.99.06.04,1.08-1.09,1.29-1.79.55-1.76,1.53-1.71,2.47-.57,1.19,1.44,2.47,2.16,4.38,1.85.66-.11,1.43.16,2.08.44,1.16.5,2.03,2.95,1.59,4.22-.55,1.6-1.72.78-2.69.69-.62-.05-1.25-.06-1.85-.19-3.5-.78-5.8.25-7.55,3.69-.85-1.6-2.03-1.99-3.69-1.49-.69.21-1.67-.39-2.46-.76-1.84-.84-3.56-.91-5.62-.44-2.16.49-4.54.15-6.81-.02-1.27-.1-2.5-.65-3.78-.85-.36-.06-1.12.38-1.15.65-.3,2.58-2.46,3.85-3.84,5.67-.85,1.12-1.59,2.33-2.54,3.72-.04-.78-.29-1.51-.06-2.02,1.05-2.37-.21-4.18-1.24-6.1-.51-.94-.95-1.93-1.34-2.93-.93-2.44-.12-3.86,2.53-4.39,1.51-.3,2.51-.81,2.88-2.6.54-2.65,1.69-2.91,4.31-2.12,1.53.46,3.26.27,4.92.37-.35-3.07-.36-3.1,2.82-3.74,1.4-.28,1.85-.91,1.17-2.23-.93-1.8-1.08-3.49.39-5.18.34-.39,0-1.34.06-2.02.17-1.93,0-4.01.7-5.73.69-1.69.49-2.87-.38-4.23-.91-1.4-1.76-2.84-2.75-4.44.73-.24,1.12-.39,1.53-.49,2.66-.66,2.76-1.32,2.36-3.98-.56-3.7-.97-7.42-.37-11.24.37-2.4.06-4.95-.22-7.41-.16-1.45-.48-2.67.68-3.97.57-.64.61-1.95.53-2.93-.13-1.68-1.34-3.81-.68-4.89,1.3-2.14,1.02-4.43,1.65-6.58.59-2.02-.11-3.98-.71-6.04-.77-2.64-3.16-3.9-4.26-6.31.8-.25,1.64-.27,2.07-.7.54-.53.87-1.38,1.05-2.15.07-.28-.56-.71-.87-1.08-.37.61-.74,1.21-1.12,1.82-.09.15-.22.27-.59.71-1.86-1.4-3.74-2.82-5.56-4.19-.6.56-1.17,1.57-1.9,1.7-2.47.42-5.03.94-7.21-1.09-1.28-1.19-2.8-2.45-2.03-4.27.41-.96,1.88-1.68,3.02-2.09,1.93-.7,3.98-1.2,6.08-.8.38.07.71.52,1.09.56.87.09,2.22.4,2.55-.02,1.23-1.58,2.41-1.21,3.73-.37.85.54,1.4.62,2.53.12,1.5-.67,3.49-.63,5.19-.36,2.5.39,4.96,1.17,7.38,1.95.42.13.59,1.03.87,1.58-.05.09-.09.18-.13.27Z"/><path d="m608.29,69.31c-1.69.6-3.29-.02-4.22-2.26-.72-1.72-2.34-1.36-3.71-1.32-1.45.05-2.55-.24-3.34-1.6-1.73-3-2.61-3-4.57-.09-.19.28-.29.6-.62,1.31-1.03-.92-2.2-1.55-2.67-2.52-.37-.77-.26-2.25.27-2.89,1.25-1.49,4.22-1.88,5.7-1.06.54.3.98.93,1.54,1.04.79.15,2.06.28,2.38-.14.74-.99,1.37-1.43,2.69-1.54,1.11-.09,2.07-1.37,3.22-1.7.96-.28,2.1.06,3.16.13.04-.19.07-.39.11-.58-.55-.33-1.1-.67-2.05-1.25,1.97,0,3.63.33,5.07-.09,1.43-.43,2.64-1.62,3.98-2.5-.92-4.12-.67-4.56,3.08-6.04.42-.17.57-1.13.76-1.75.23-.77.13-1.75.58-2.33,1.51-1.92,2.56-3.6,1.51-6.36-1.12-2.94,2.18-6.54,4.59-5.32,1.46.74,2.49,2.42,3.54,3.81.16.21-.48,1.24-.96,1.68-1.44,1.35-2.25,2.53-1.69,4.86.36,1.49-.96,3.49-1.79,5.12-1.52,2.98-3.23,5.87-4.87,8.79-.08.15-.17.46-.22.45-2.68-.44-2.69,2.25-4.03,3.38-.47.39-1.02.74-1.59.95-2.62.97-3.06,3.16-1.05,5.26,1.23,1.29,3.04,2.4,3.53,3.93,1.03,3.18,3.65,5.76,3.34,9.51-.12,1.46.94,3,1.37,4.52.75,2.63,1.47,5.28,2.14,7.93.28,1.1.53,2.25.55,3.38.03,2.01.13,4.07-.27,6.02-.36,1.75-.3,3.08,1.5,3.66,1.47.47,3.23,1.78,4.26-.8.56-1.41,1.63-1.16,2.64-.51,1.98,1.28,2.67,3.36,2.84,5.49.05.7-1.09,1.62-1.86,2.21-.81.61-1.84.93-2.94,1.45-.37-.24-.95-.63-1.91-1.26,1.32,5.62-2.78,4.18-5.31,4.68-.95-1.39-1.71-2.88-2.82-4.04-1.26-1.31-2.86-2.09-4.94.01-.42-2.49-.58-4.35-1.09-6.09-.39-1.34-1.18-2.57-1.88-3.8-1.36-2.38-1.18-2.99,1.53-3.55,1.25-.26,1.45-.89,1.18-1.88-.28-1.02-.78-1.98-1.02-3-.52-2.26-.61-4.54-1.42-6.83-.65-1.82.78-4.27.54-6.36-.22-1.91-1.39-3.73-2.25-5.53-.68-1.43-1.53-2.78-2.54-4.59Z"/><path d="m62.29,79.46c.62,1.44,1.08,2.97,1.89,4.29,1.56,2.53,1.39,3.13-.86,5.04-.99.84-1.31,2.44-2.14,3.53-.93,1.23-1.23,2.17-.55,3.82.94,2.27,1.16,4.83,1.68,7.27.06.26.17.62.06.78-1.23,1.61-2.23,3.64-3.85,4.63-1.45.88-3.6.64-5.45.75-.32.02-.67-.71-1.02-1.06-2.77-2.79-3.42-6.42-3.81-10.08-.08-.8.45-1.88,1.05-2.49,1.22-1.26,1.04-2.28-.31-3.02-1.49-.82-2.14-1.97-2.42-3.58-.15-.83-.84-1.54-1.21-2.34-.77-1.67-1.68-3.22-.86-5.3.35-.88-.11-2.63-.84-3.27-2.34-2.06-2.55-4.58-2.18-7.29.23-1.63.25-3.02-1.11-4.24-.55-.5-.74-1.39-1.25-2.41,1.59-.4,2.99-.87,4.43-1.08,1.29-.18,3.34,2.89,3.31,4.54-.02,1.36.2,2.72.32,4.08.02.18.17.38.11.51-1.26,3.17,1.07,5.14,2.43,7.45.44.75.59,1.67,1,2.44.47.87,1.13,1.63,1.64,2.48.81,1.35,1.56,2.73,2.4,4.22-.17.2-.44.43-.6.72-.51.94-1.5,2-1.35,2.83.24,1.24,1.53,1.26,2.83,1.04.87-.15,1.87.43,3.02.73.75-1.93,1.21-3.64-.01-5.82-1.9-3.42-1.22-5.46,1.85-7.87.7-.55,1.43-1.05,1.78-1.3Z"/><path d="m576.31,11.18c.03-.09.08-.18.13-.27.4-.18.95-.26,1.18-.57,1.91-2.53,4.79-1.92,7.28-2.07,2.45-.14,5.49-.33,7.47-1.07.8-.3,2-.45,2.67-.06,2.86,1.65,5.93,2.28,9.13,2.21,1.85-.04,3.25.52,4.51,1.78,1.1,1.1,2.25,2.1,4.01,1.33.27-.12.77-.06,1.02.12,2.17,1.56,4.65,2.86,6.38,4.82,2.34,2.65,4.13,5.79,6.1,8.76.32.49.39,1.14.56,1.64-1.55.43-2.95.85-4.37,1.21-1.56.4-3.52-.88-4.65-2.81-.38-.65-1.1-1.11-1.66-1.66-.82-.8-1.73-1.53-2.43-2.43-1.17-1.5-2.09-3.2-3.34-4.62-.84-.96-2.02-2.17-3.12-2.25-4.28-.34-8.49-1.64-12.94-.32-1.69.5-4.04-.47-5.84-1.32-2.32-1.1-4.33-1.34-6.4.29-.28.22-.6.4-.92.55-2.51,1.19-3.06.98-4.11-1.52-.24-.57-.45-1.15-.67-1.72Z"/><path d="m699.48,12.81c-.87-1.83-1.57-3.26-2.24-4.7-.83-1.8.35-3.98,2.29-3.65,2.41.4,2.74-.73,2.95-2.54.06-.53.49-1.16.94-1.44.25-.15,1.11.22,1.32.58,1.42,2.45,2.78,4.95,4.08,7.47.5.97.83,2.27-.42,2.78-.8.33-1.92-.06-2.89-.21-.33-.05-.62-.34-.92-.53q-2.44-1.52-3.96,1.01c-.21.35-.57.62-1.14,1.23Z"/><path d="m695.54,34.27s-.35.03-.69,0c-3.54-.35-3.89-.67-4.01-3.63-.12-2.91,1.37-4.98,4.04-5.41.46-.07,1.27.22,1.45.58.4.8.78,1.79.66,2.62-.28,1.86-.88,3.67-1.44,5.85Z"/><path d="m700.01,17.61c.04,1.87-1.93,5-3.53,5.42-.41.11-1.24-.14-1.38-.45-.41-.93-1.1-2.28-.73-2.9.88-1.46.64-2.71.17-4.07-.49-1.42.16-1.8,1.43-1.7.09,0,.18.02.27.02q3.7.01,3.78,3.68Z"/><path d="m66.34,63.74c.99,1.43.4,3.14.12,4.59-.08.4-2.34.35-3.59.55-1.6.26-2.26-.61-1.93-1.97.29-1.21.99-2.4,2.67-1.87.34.11.64.33.98.42.42.11.85.13,1.5.21-.16-.73-.27-1.26-.39-1.8.21-.04.42-.09.63-.13Z"/><path d="m707.54,16.1c2.85,1.19,3.73,3.92,2.47,7.07-2.47-1.84-2.11-4.44-2.47-7.07Z"/><path d="m205.67,20.15c-.12,1.22-3.92,3.29-4.61,2.7-.34-.3-.53-1.44-.42-1.5,1.32-.7,2.69-1.31,4.1-1.82.24-.09.71.45.94.61Z"/><path d="m693.65,36.09c-2.14,1.54-1.86,3.38-1.01,5.49-1.76-.23-2.56-.85-2.43-2.42.15-1.83,1.22-2.93,3.44-3.07Z"/><path d="m63.29,74.28v-3.08c.2-.02.39-.05.59-.07.09,1.06.18,2.11.27,3.17-.29,0-.57-.02-.86-.03Z"/></svg>