<?xml version="1.0" encoding="UTF-8"?><svg id="Layer_1" xmlns="http://www.w3.org/2000/svg" viewBox="0 0 90 90"><defs><style>.cls-1{fill-rule:evenodd;}</style></defs><path class="cls-1" d="m22.5,0v7.5h45V0H22.5Zm45,7.5v7.5h7.5v-7.5h-7.5Zm7.5,7.5v7.5h7.5v-7.5h-7.5Zm7.5,7.5v45h7.5V22.5h-7.5Zm0,45h-7.5v7.5h7.5v-7.5h0Zm-7.5,7.5h-7.5v7.5h7.5v-7.5h0Zm-7.5,7.5H22.5v7.5h45v-7.5h0Zm-45,0v-7.5h-7.5v7.5h7.5Zm-7.5-7.5v-7.5h-7.5v7.5h7.5Zm-7.5-7.5V22.5H0v45h7.5Zm0-45h7.5v-7.5h-7.5v7.5h0Zm7.5-7.5h7.5v-7.5h-7.5v7.5h0Zm16.51,6.69l-.42,7.49,7.49.42,7.49.42,7.49.42,7.49.42.42-7.49-7.49-.42-7.49-.42-7.49-.42-7.49-.42h0Zm29.53,9.18l-.42,7.49,7.49.42.42-7.49-7.49-.42h0Zm7.06,7.91l-.42,7.49,7.49.42.42-7.49-7.49-.42h0Zm-37.02-9.61l-7.49-.42-.42,7.49,7.49.42.42-7.49h0Zm-7.91,7.06l-7.49-.42-.42,7.49,7.49.42.42-7.49h0Zm7.06,7.91l-.42,7.49,7.49.42,7.49.42,7.49.42,7.49.42.42-7.49-7.49-.42-7.49-.42-7.49-.42-7.49-.42h0Zm29.53,9.18l-.42,7.49,7.49.42.42-7.49-7.49-.42h0Zm-29.95-1.69l-7.49-.42-.42,7.49,7.49.42.42-7.49h0Zm4.66,9.78l-.18,3.13-.18,3.13,9.93.56,9.93.56.18-3.13.18-3.13-9.93-.56-9.93-.56h0Z"/></svg>