<?xml version="1.0" encoding="UTF-8"?><svg xmlns="http://www.w3.org/2000/svg" viewBox="0 0 78 87"><g id="Layer_1" shape-rendering="crispEdges"><rect x="36" width="3" height="3"/><rect x="39" width="3" height="3"/><rect x="36" y="3" width="3" height="3"/><rect x="39" y="3" width="3" height="3"/><rect x="36" y="6" width="3" height="3"/><rect x="39" y="6" width="3" height="3"/><rect x="9" y="9" width="3" height="3"/><rect x="12" y="9" width="3" height="3"/><rect x="63" y="9" width="3" height="3"/><rect x="66" y="9" width="3" height="3"/><rect x="9" y="12" width="3" height="3"/><rect x="12" y="12" width="3" height="3"/><rect x="15" y="12" width="3" height="3"/><rect x="33" y="12" width="3" height="3"/><rect x="36" y="12" width="3" height="3"/><rect x="39" y="12" width="3" height="3"/><rect x="42" y="12" width="3" height="3"/><rect x="60" y="12" width="3" height="3"/><rect x="63" y="12" width="3" height="3"/><rect x="66" y="12" width="3" height="3"/><rect x="12" y="15" width="3" height="3"/><rect x="15" y="15" width="3" height="3"/><rect x="27" y="15" width="3" height="3"/><rect x="30" y="15" width="3" height="3"/><rect x="45" y="15" width="3" height="3"/><rect x="48" y="15" width="3" height="3"/><rect x="60" y="15" width="3" height="3"/><rect x="63" y="15" width="3" height="3"/><rect x="21" y="18" width="3" height="3"/><rect x="24" y="18" width="3" height="3"/><rect x="51" y="18" width="3" height="3"/><rect x="54" y="18" width="3" height="3"/><rect x="18" y="21" width="3" height="3"/><rect x="36" y="21" width="3" height="3"/><rect x="39" y="21" width="3" height="3"/><rect x="57" y="21" width="3" height="3"/><rect x="18" y="24" width="3" height="3"/><rect x="30" y="24" width="3" height="3"/><rect x="33" y="24" width="3" height="3"/><rect x="36" y="24" width="3" height="3"/><rect x="39" y="24" width="3" height="3"/><rect x="42" y="24" width="3" height="3"/><rect x="45" y="24" width="3" height="3"/><rect x="57" y="24" width="3" height="3"/><rect x="15" y="27" width="3" height="3"/><rect x="27" y="27" width="3" height="3"/><rect x="30" y="27" width="3" height="3"/><rect x="33" y="27" width="3" height="3"/><rect x="36" y="27" width="3" height="3"/><rect x="39" y="27" width="3" height="3"/><rect x="42" y="27" width="3" height="3"/><rect x="45" y="27" width="3" height="3"/><rect x="48" y="27" width="3" height="3"/><rect x="60" y="27" width="3" height="3"/><rect x="15" y="30" width="3" height="3"/><rect x="27" y="30" width="3" height="3"/><rect x="30" y="30" width="3" height="3"/><rect x="36" y="30" width="3" height="3"/><rect x="39" y="30" width="3" height="3"/><rect x="45" y="30" width="3" height="3"/><rect x="48" y="30" width="3" height="3"/><rect x="60" y="30" width="3" height="3"/><rect x="12" y="33" width="3" height="3"/><rect x="27" y="33" width="3" height="3"/><rect x="30" y="33" width="3" height="3"/><rect x="36" y="33" width="3" height="3"/><rect x="39" y="33" width="3" height="3"/><rect x="63" y="33" width="3" height="3"/><rect y="36" width="3" height="3"/><rect x="3" y="36" width="3" height="3"/><rect x="6" y="36" width="3" height="3"/><rect x="12" y="36" width="3" height="3"/><rect x="27" y="36" width="3" height="3"/><rect x="30" y="36" width="3" height="3"/><rect x="33" y="36" width="3" height="3"/><rect x="36" y="36" width="3" height="3"/><rect x="39" y="36" width="3" height="3"/><rect x="42" y="36" width="3" height="3"/><rect x="45" y="36" width="3" height="3"/><rect x="63" y="36" width="3" height="3"/><rect x="69" y="36" width="3" height="3"/><rect x="72" y="36" width="3" height="3"/><rect x="75" y="36" width="3" height="3"/><rect y="39" width="3" height="3"/><rect x="3" y="39" width="3" height="3"/><rect x="6" y="39" width="3" height="3"/><rect x="12" y="39" width="3" height="3"/><rect x="30" y="39" width="3" height="3"/><rect x="33" y="39" width="3" height="3"/><rect x="36" y="39" width="3" height="3"/><rect x="39" y="39" width="3" height="3"/><rect x="42" y="39" width="3" height="3"/><rect x="45" y="39" width="3" height="3"/><rect x="48" y="39" width="3" height="3"/><rect x="63" y="39" width="3" height="3"/><rect x="69" y="39" width="3" height="3"/><rect x="72" y="39" width="3" height="3"/><rect x="75" y="39" width="3" height="3"/><rect x="12" y="42" width="3" height="3"/><rect x="36" y="42" width="3" height="3"/><rect x="39" y="42" width="3" height="3"/><rect x="45" y="42" width="3" height="3"/><rect x="48" y="42" width="3" height="3"/><rect x="63" y="42" width="3" height="3"/><rect x="15" y="45" width="3" height="3"/><rect x="27" y="45" width="3" height="3"/><rect x="30" y="45" width="3" height="3"/><rect x="36" y="45" width="3" height="3"/><rect x="39" y="45" width="3" height="3"/><rect x="45" y="45" width="3" height="3"/><rect x="48" y="45" width="3" height="3"/><rect x="60" y="45" width="3" height="3"/><rect x="15" y="48" width="3" height="3"/><rect x="27" y="48" width="3" height="3"/><rect x="30" y="48" width="3" height="3"/><rect x="33" y="48" width="3" height="3"/><rect x="36" y="48" width="3" height="3"/><rect x="39" y="48" width="3" height="3"/><rect x="42" y="48" width="3" height="3"/><rect x="45" y="48" width="3" height="3"/><rect x="48" y="48" width="3" height="3"/><rect x="60" y="48" width="3" height="3"/><rect x="18" y="51" width="3" height="3"/><rect x="30" y="51" width="3" height="3"/><rect x="33" y="51" width="3" height="3"/><rect x="36" y="51" width="3" height="3"/><rect x="39" y="51" width="3" height="3"/><rect x="42" y="51" width="3" height="3"/><rect x="45" y="51" width="3" height="3"/><rect x="57" y="51" width="3" height="3"/><rect x="18" y="54" width="3" height="3"/><rect x="36" y="54" width="3" height="3"/><rect x="39" y="54" width="3" height="3"/><rect x="57" y="54" width="3" height="3"/><rect x="21" y="57" width="3" height="3"/><rect x="24" y="57" width="3" height="3"/><rect x="51" y="57" width="3" height="3"/><rect x="54" y="57" width="3" height="3"/><rect x="12" y="60" width="3" height="3"/><rect x="15" y="60" width="3" height="3"/><rect x="27" y="60" width="3" height="3"/><rect x="30" y="60" width="3" height="3"/><rect x="45" y="60" width="3" height="3"/><rect x="48" y="60" width="3" height="3"/><rect x="60" y="60" width="3" height="3"/><rect x="63" y="60" width="3" height="3"/><rect x="9" y="63" width="3" height="3"/><rect x="12" y="63" width="3" height="3"/><rect x="15" y="63" width="3" height="3"/><rect x="24" y="63" width="3" height="3"/><rect x="27" y="63" width="3" height="3"/><rect x="30" y="63" width="3" height="3"/><rect x="33" y="63" width="3" height="3"/><rect x="36" y="63" width="3" height="3"/><rect x="39" y="63" width="3" height="3"/><rect x="42" y="63" width="3" height="3"/><rect x="45" y="63" width="3" height="3"/><rect x="48" y="63" width="3" height="3"/><rect x="51" y="63" width="3" height="3"/><rect x="60" y="63" width="3" height="3"/><rect x="63" y="63" width="3" height="3"/><rect x="66" y="63" width="3" height="3"/><rect x="9" y="66" width="3" height="3"/><rect x="12" y="66" width="3" height="3"/><rect x="24" y="66" width="3" height="3"/><rect x="27" y="66" width="3" height="3"/><rect x="30" y="66" width="3" height="3"/><rect x="33" y="66" width="3" height="3"/><rect x="36" y="66" width="3" height="3"/><rect x="39" y="66" width="3" height="3"/><rect x="42" y="66" width="3" height="3"/><rect x="45" y="66" width="3" height="3"/><rect x="48" y="66" width="3" height="3"/><rect x="51" y="66" width="3" height="3"/><rect x="63" y="66" width="3" height="3"/><rect x="66" y="66" width="3" height="3"/><rect x="30" y="69" width="3" height="3"/><rect x="33" y="69" width="3" height="3"/><rect x="36" y="69" width="3" height="3"/><rect x="39" y="69" width="3" height="3"/><rect x="42" y="69" width="3" height="3"/><rect x="45" y="69" width="3" height="3"/><rect x="27" y="72" width="3" height="3"/><rect x="48" y="72" width="3" height="3"/><rect x="27" y="75" width="3" height="3"/><rect x="30" y="75" width="3" height="3"/><rect x="33" y="75" width="3" height="3"/><rect x="36" y="75" width="3" height="3"/><rect x="39" y="75" width="3" height="3"/><rect x="42" y="75" width="3" height="3"/><rect x="45" y="75" width="3" height="3"/><rect x="48" y="75" width="3" height="3"/><rect x="27" y="78" width="3" height="3"/><rect x="30" y="78" width="3" height="3"/><rect x="33" y="78" width="3" height="3"/><rect x="36" y="78" width="3" height="3"/><rect x="39" y="78" width="3" height="3"/><rect x="42" y="78" width="3" height="3"/><rect x="45" y="78" width="3" height="3"/><rect x="48" y="78" width="3" height="3"/><rect x="30" y="81" width="3" height="3"/><rect x="33" y="81" width="3" height="3"/><rect x="36" y="81" width="3" height="3"/><rect x="39" y="81" width="3" height="3"/><rect x="42" y="81" width="3" height="3"/><rect x="45" y="81" width="3" height="3"/><rect x="33" y="84" width="3" height="3"/><rect x="36" y="84" width="3" height="3"/><rect x="39" y="84" width="3" height="3"/><rect x="42" y="84" width="3" height="3"/></g></svg>