<svg xmlns="http://www.w3.org/2000/svg" xmlns:xlink="http://www.w3.org/1999/xlink" xmlns:sketch="http://www.bohemiancoding.com/sketch/ns" viewBox="0 0 91 113.75" version="1.1" x="0px" y="0px"><title>path27639</title><desc>Created with Sketch.</desc><g stroke="none" stroke-width="1" fill="none" fill-rule="evenodd" sketch:type="MSPage"><path d="M23.3125,0.45508 L23.3125,7.95508 L30.8125,7.95508 L38.3125,7.95508 L45.8125,7.95508 L53.3125,7.95508 L60.8125,7.95508 L68.3125,7.95508 L68.3125,0.45508 L60.8125,0.45508 L53.3125,0.45508 L45.8125,0.45508 L38.3125,0.45508 L30.8125,0.45508 L23.3125,0.45508 L23.3125,0.45508 Z M68.3125,7.95508 L68.3125,15.45508 L75.8125,15.45508 L75.8125,7.95508 L68.3125,7.95508 L68.3125,7.95508 Z M75.8125,15.45508 L75.8125,22.95508 L83.3125,22.95508 L83.3125,15.45508 L75.8125,15.45508 L75.8125,15.45508 Z M83.3125,22.95508 L83.3125,30.45508 L83.3125,37.95508 L83.3125,45.45508 L83.3125,52.95508 L83.3125,60.45508 L83.3125,67.95508 L90.8125,67.95508 L90.8125,60.45508 L90.8125,52.95508 L90.8125,45.45508 L90.8125,37.95508 L90.8125,30.45508 L90.8125,22.95508 L83.3125,22.95508 L83.3125,22.95508 Z M83.3125,67.95508 L75.8125,67.95508 L75.8125,75.45508 L83.3125,75.45508 L83.3125,67.95508 L83.3125,67.95508 Z M75.8125,75.45508 L68.3125,75.45508 L68.3125,82.95508 L75.8125,82.95508 L75.8125,75.45508 L75.8125,75.45508 Z M68.3125,82.95508 L60.8125,82.95508 L53.3125,82.95508 L45.8125,82.95508 L38.3125,82.95508 L30.8125,82.95508 L23.3125,82.95508 L23.3125,90.45508 L30.8125,90.45508 L38.3125,90.45508 L45.8125,90.45508 L53.3125,90.45508 L60.8125,90.45508 L68.3125,90.45508 L68.3125,82.95508 L68.3125,82.95508 Z M23.3125,82.95508 L23.3125,75.45508 L15.8125,75.45508 L15.8125,82.95508 L23.3125,82.95508 L23.3125,82.95508 Z M15.8125,75.45508 L15.8125,67.95508 L8.3125,67.95508 L8.3125,75.45508 L15.8125,75.45508 L15.8125,75.45508 Z M8.3125,67.95508 L8.3125,60.45508 L8.3125,52.95508 L8.3125,45.45508 L8.3125,37.95508 L8.3125,30.45508 L8.3125,22.95508 L0.8125,22.95508 L0.8125,30.45508 L0.8125,37.95508 L0.8125,45.45508 L0.8125,52.95508 L0.8125,60.45508 L0.8125,67.95508 L8.3125,67.95508 L8.3125,67.95508 Z M8.3125,22.95508 L15.8125,22.95508 L15.8125,15.45508 L8.3125,15.45508 L8.3125,22.95508 L8.3125,22.95508 Z M15.8125,15.45508 L23.3125,15.45508 L23.3125,7.95508 L15.8125,7.95508 L15.8125,15.45508 L15.8125,15.45508 Z M15.8125,67.95508 L23.3125,67.95508 L23.3125,60.45508 L23.3125,52.95508 L23.3125,45.45508 L30.8125,45.45508 L30.8125,52.95508 L38.3125,52.95508 L38.3125,45.45508 L38.3125,37.95508 L45.8125,37.95508 L53.3125,37.95508 L53.3125,45.45508 L53.3125,52.95508 L60.8125,52.95508 L60.8125,45.45508 L68.3125,45.45508 L68.3125,52.95508 L68.3125,60.45508 L68.3125,67.95508 L75.8125,67.95508 L75.8125,60.45508 L75.8125,52.95508 L75.8125,45.45508 L75.8125,37.95508 L75.8125,30.45508 L68.3125,30.45508 L68.3125,37.95508 L60.8125,37.95508 L60.8125,30.45508 L68.3125,30.45508 L68.3125,22.95508 L60.8125,22.95508 L53.3125,22.95508 L45.8125,22.95508 L38.3125,22.95508 L30.8125,22.95508 L23.3125,22.95508 L23.3125,30.45508 L15.8125,30.45508 L15.8125,37.95508 L15.8125,45.45508 L15.8125,52.95508 L15.8125,60.45508 L15.8125,67.95508 L15.8125,67.95508 Z M68.3125,67.95508 L60.8125,67.95508 L53.3125,67.95508 L45.8125,67.95508 L38.3125,67.95508 L30.8125,67.95508 L23.3125,67.95508 L23.3125,75.45508 L30.8125,75.45508 L38.3125,75.45508 L45.8125,75.45508 L53.3125,75.45508 L60.8125,75.45508 L68.3125,75.45508 L68.3125,67.95508 L68.3125,67.95508 Z M53.3125,52.95508 L45.8125,52.95508 L38.3125,52.95508 L38.3125,60.45508 L45.8125,60.45508 L53.3125,60.45508 L53.3125,52.95508 L53.3125,52.95508 Z" fill="#000000" sketch:type="MSShapeGroup"/></g><text x="0" y="106" fill="#000000" font-size="5px" font-weight="bold" font-family="'Helvetica Neue', Helvetica, Arial-Unicode, Arial, Sans-serif">Created by Bluetip Design</text><text x="0" y="111" fill="#000000" font-size="5px" font-weight="bold" font-family="'Helvetica Neue', Helvetica, Arial-Unicode, Arial, Sans-serif">from the Noun Project</text></svg>