<svg xmlns="http://www.w3.org/2000/svg" xmlns:xlink="http://www.w3.org/1999/xlink" version="1.1" x="0px" y="0px" viewBox="0 0 100 125" enable-background="new 0 0 100 100" xml:space="preserve"><path d="M88.451,23.074h-3.83h-3.86h-3.83h-3.859h-3.83h-3.86h-3.83v-3.84h3.83h3.86h3.83v-3.85h3.859v-3.84v-3.85v-3.84h-3.859  h-3.83h-3.86h-3.83h-3.86v3.84h-3.829v3.85h-3.86h-3.86v-3.85h-3.83v-3.84h-3.859h-3.83h-3.86h-3.83h-3.859v3.84v3.85v3.84h3.859  v3.85h3.83h3.86h3.83v3.84h-3.83h-3.86h-3.83h-3.859h-3.83h-3.86h-3.83H7.69v3.85v3.84v3.85v3.84v3.85v3.84v3.86h3.86v3.85v3.84  v3.851v3.84v3.85v3.84v3.85v3.84v3.851v3.84v3.851v3.84h3.83h3.86h3.83h3.859h3.83h3.86h3.83h3.859h3.83h3.86h3.86h3.829h3.86h3.83  h3.86h3.83h3.859h3.83h3.86h3.83v-3.84v-3.851v-3.84v-3.851v-3.84v-3.85v-3.84v-3.85v-3.84v-3.851v-3.84v-3.85h3.859v-3.86v-3.84  v-3.85v-3.84v-3.85v-3.84v-3.85H88.451z M38.451,15.384h-3.83h-3.86v-3.84h-3.83v-3.85h3.83h3.86h3.83v3.85h3.859v3.84h3.83h3.86  h3.86h3.829v-3.84h3.86v-3.85h3.83h3.86h3.83v3.85h-3.83v3.84h-3.86h-3.83h-3.86v3.85h-3.829v3.84h-3.86h-3.86v-3.84h-3.83v-3.85  H38.451z M53.861,30.764v3.85v3.84v3.85v3.84h-3.86h-3.86v-3.84v-3.85v-3.84v-3.85v-3.84h3.86h3.86V30.764z M11.551,42.304v-3.85  v-3.84v-3.85v-3.84h3.83h3.86h3.83h3.859h3.83h3.86h3.83h3.859v3.84v3.85v3.84v3.85v3.84h-3.859h-3.83h-3.86h-3.83h-3.859h-3.83  h-3.86h-3.83V42.304z M38.451,92.305h-3.83h-3.86h-3.83h-3.859h-3.83h-3.86v-3.851v-3.84v-3.851v-3.84v-3.85v-3.84v-3.85v-3.84  v-3.851v-3.84v-3.85h3.86h3.83h3.859h3.83h3.86h3.83h3.859v3.85v3.84v3.851v3.84v3.85v3.84v3.85v3.84v3.851v3.84v3.851H38.451z   M50.001,92.305h-3.86v-3.851v-3.84v-3.851v-3.84v-3.85v-3.84v-3.85v-3.84v-3.851v-3.84v-3.85h3.86h3.86v3.85v3.84v3.851v3.84v3.85  v3.84v3.85v3.84v3.851v3.84v3.851H50.001z M84.621,53.854v3.84v3.851v3.84v3.85v3.84v3.85v3.84v3.851v3.84v3.851h-3.86h-3.83h-3.859  h-3.83h-3.86h-3.83h-3.86v-3.851v-3.84v-3.851v-3.84v-3.85v-3.84v-3.85v-3.84v-3.851v-3.84v-3.85h3.86h3.83h3.86h3.83h3.859h3.83  h3.86V53.854z M88.451,30.764v3.85v3.84v3.85v3.84h-3.83h-3.86h-3.83h-3.859h-3.83h-3.86h-3.83h-3.86v-3.84v-3.85v-3.84v-3.85v-3.84  h3.86h3.83h3.86h3.83h3.859h3.83h3.86h3.83V30.764z"/><text x="0" y="115" fill="#000000" font-size="5px" font-weight="bold" font-family="'Helvetica Neue', Helvetica, Arial-Unicode, Arial, Sans-serif">Created by Bakunetsu Kaito</text><text x="0" y="120" fill="#000000" font-size="5px" font-weight="bold" font-family="'Helvetica Neue', Helvetica, Arial-Unicode, Arial, Sans-serif">from the Noun Project</text></svg>