<?xml version="1.0" encoding="UTF-8"?><svg id="Layer_1" xmlns="http://www.w3.org/2000/svg" viewBox="0 0 90 90"><defs><style>.cls-1{fill-rule:evenodd;}</style></defs><path class="cls-1" d="m22.5,0v7.5h45V0H22.5Zm45,7.5v7.5h7.5v-7.5h-7.5Zm7.5,7.5v7.5h7.5v-7.5h-7.5Zm7.5,7.5v45h7.5V22.5h-7.5Zm0,45h-7.5v7.5h7.5v-7.5h0Zm-7.5,7.5h-7.5v7.5h7.5v-7.5h0Zm-7.5,7.5H22.5v7.5h45v-7.5h0Zm-45,0v-7.5h-7.5v7.5h7.5Zm-7.5-7.5v-7.5h-7.5v7.5h7.5Zm-7.5-7.5V22.5H0v45h7.5Zm0-45h7.5v-7.5h-7.5v7.5h0Zm7.5-7.5h7.5v-7.5h-7.5v7.5h0Zm15,0v60h7.5v-7.5h7.5v-7.5h7.5v-7.5h7.5v-15h-7.5v-7.5h-7.5v-7.5h-7.5v-7.5h-7.5Z"/></svg>