<?xml version="1.0" encoding="UTF-8"?><svg id="Layer_1" xmlns="http://www.w3.org/2000/svg" viewBox="0 0 90 90"><rect x="50.6" y="22.5" width="5.6" height="5.6"/><rect x="56.2" y="16.9" width="5.6" height="5.6"/><rect x="61.9" y="11.2" width="5.6" height="5.6"/><rect x="67.5" y="5.6" width="5.6" height="5.6"/><polygon points="84.4 0 78.8 0 73.1 0 73.1 5.6 78.8 5.6 84.4 5.6 84.4 11.2 84.4 16.9 90 16.9 90 11.2 90 5.6 90 0 84.4 0"/><rect x="61.9" y="33.8" width="5.6" height="5.6"/><rect x="67.5" y="28.1" width="5.6" height="5.6"/><rect x="73.1" y="22.5" width="5.6" height="5.6"/><rect x="78.8" y="16.9" width="5.6" height="5.6"/><polygon points="33.8 56.2 33.8 61.9 39.4 61.9 45 61.9 45 56.2 39.4 56.2 33.8 56.2"/><rect x="45" y="50.6" width="5.6" height="5.6"/><rect x="50.6" y="45" width="5.6" height="5.6"/><rect x="56.2" y="39.4" width="5.6" height="5.6"/><rect x="33.8" y="39.4" width="5.6" height="5.6"/><rect x="39.4" y="33.8" width="5.6" height="5.6"/><rect x="45" y="28.1" width="5.6" height="5.6"/><path d="m28.1,61.9v-5.6h-5.6v5.6h-5.6v5.6h-5.6v5.6H0v16.9h16.8v-11.2h5.6v-5.6h5.6v-5.6h5.6v-5.6h-5.5v-.1Zm-16.9,16.9v5.6h-5.6v-5.6h5.6Z"/><polygon points="22.5 45.4 28.1 45.4 28.1 50.6 28.1 56.2 33.8 56.2 33.8 50.6 33.8 45 28.1 45 28.1 39.7 22.5 39.7 22.5 45 16.9 45 16.9 39.7 22.5 39.7 22.5 34.1 16.9 34.1 11.2 34.1 11.2 39.7 11.2 45.4 16.9 45.4 16.9 50.6 16.9 56.2 22.5 56.2 22.5 50.6 22.5 45.4"/><polygon points="45 73.1 45 78.7 50.6 78.7 56.2 78.7 56.2 73.1 56.2 67.5 50.6 67.5 50.6 73.1 45 73.1"/><polygon points="39.4 67.5 33.8 67.5 33.8 73.1 39.4 73.1 45 73.1 45 67.5 39.4 67.5"/><rect x="45" y="61.9" width="5.6" height="5.6"/></svg>